<svg data-logo="logo" xmlns="http://www.w3.org/2000/svg" viewBox="0 0 201 43">
            <g style="opacity: 1;" id="logogram" transform="translate(0, 1) rotate(0)"><path d="M17.3991 3.08704L20.0562 0.429993L40.0562 20.43L20.0562 40.43L17.3991 37.7729L34.742 20.43L17.3991 3.08704Z" fill="#BA3030"></path><path d="M13.9305 6.55563L16.5876 3.89858L33.119 20.43L16.5876 36.9614L13.9305 34.3044L27.8049 20.43L13.9305 6.55563Z" fill="#C72C2C"></path><path d="M0.0561537 20.43L13.119 7.36717L26.1818 20.43L13.119 33.4928L10.4619 30.8357L20.8677 20.43L13.119 12.6813L2.7132 23.087L0.0561537 20.43Z" fill="#CE2525"></path><path d="M13.119 14.3044L10.4619 16.9614L13.9305 20.43L6.99333 27.3672L9.65037 30.0242L19.2446 20.43L13.119 14.3044Z" fill="#D62121"></path><path d="M6.1818 26.5556L3.52474 23.8986L9.62258 17.8007L12.2796 20.4578L6.1818 26.5556Z" fill="#DF1B1B"></path></g>
            <g style="opacity: 1;" id="logotype" transform="translate(42, 9.5)"><path fill="#ba3030" d="M31.94 24L24.28 24L24.28 15.32Q24.28 13.71 24.40 12.01Q24.52 10.31 24.66 9.16Q24.80 8.00 24.84 7.69L24.84 7.69L24.70 7.69L20.25 24L14.20 24L9.72 7.72L9.58 7.72Q9.61 8.04 9.77 9.18Q9.93 10.31 10.07 12.01Q10.21 13.71 10.21 15.32L10.21 15.32L10.21 24L3.10 24L3.10-0.08L14.02-0.08L17.66 13.81L17.80 13.81L21.41-0.08L31.94-0.08L31.94 24ZM59.56 24L51.37 24L50.35 20.61L41.92 20.61L40.90 24L32.99 24L41.78-0.08L50.77-0.08L59.56 24ZM46.08 6.64L43.53 15.21L48.74 15.21L46.22 6.64L46.08 6.64ZM74.64 24L65.68 24L57.14-0.08L65.40-0.08L70.23 16.02L70.37 16.02L75.24-0.08L83.15-0.08L74.64 24ZM84.97 24L84.97-0.08L105.79-0.08L105.79 5.69L92.70 5.69L92.70 9.02L103.90 9.02L103.90 14.55L92.70 14.55L92.70 18.23L106.04 18.23L106.04 24L84.97 24ZM132.81 24L126.06 24L115.94 12.31L115.94 24L108.84 24L108.84-0.08L115.59-0.08L125.71 11.78L125.71-0.08L132.81-0.08L132.81 24ZM158.32 6.08L150.45 6.08L150.45 24L142.72 24L142.72 6.08L134.81 6.08L134.81-0.08L158.32-0.08L158.32 6.08Z"></path></g>
            
          </svg>